<svg enable-background="new 0 0 512 512" viewBox="0 0 512 512" xmlns="http://www.w3.org/2000/svg"><path d="m414.531 341.538v.003c0 50.556-68.509 91.541-153.02 91.541-73.06 0-134.142-30.634-149.357-71.599l-6.635-1.594v-11.492l-2.972-1.334c-6.771-3.038-6.771-8.01 0-11.048l2.972-1.334v-101.918l92.177 25.56c19.424-5.34 41.036-8.322 63.815-8.322 24.188 0 47.059 3.362 67.395 9.34l85.625-20.578z" fill="#132028"/><path d="m122.592 389.093 5.153 56.089c.977 10.633-6.851 20.045-17.485 21.022s-20.045-6.851-21.022-17.485c-.107-1.161-.096-2.415 0-3.538l5.153-56.089c.715-7.788 7.608-13.521 15.396-12.805 6.908.635 12.198 6.137 12.805 12.806z" fill="#ffb636"/><path d="m236.306 345.585-225.785-125.316c-10.831-6.012-10.831-15.849 0-21.861l225.785-125.315c10.831-6.012 28.556-6.012 39.387 0l225.785 125.316c10.831 6.012 10.831 15.849 0 21.861l-225.784 125.315c-10.832 6.012-28.556 6.012-39.388 0z" fill="#464a4c"/><path d="m108.492 395.822c-16.022 0-29.011-12.989-29.011-29.012v-7.503c0-16.022 12.989-29.012 29.011-29.012s29.011 12.989 29.011 29.012v7.503c0 16.023-12.989 29.012-29.011 29.012z" fill="#ffd592"/><path d="m108.492 368.861c-8.332 0-15.086-6.754-15.086-15.086v-68.631c0-5.361 2.846-10.32 7.475-13.025l147.508-86.194c7.194-4.203 16.433-1.779 20.637 5.415 4.203 7.193 1.779 16.433-5.414 20.636l-140.034 81.826v59.974c0 8.331-6.755 15.085-15.086 15.085z" fill="#ffb636"/><path d="m290.332 198.95c0 13.307-15.371 24.094-34.332 24.094s-34.332-10.787-34.332-24.094 15.371-24.094 34.332-24.094 34.332 10.787 34.332 24.094z" fill="#132028"/></svg>